Gallery: 
 
http://imagedomino.com/?g=145932

Studio
Digital Sin
Starring
Mike Adriano, Chris Strokes, Vanessa Cage, Mary Jane Johnson, Sensi Pearl
Genre
All Sex, POV

So Young So Sexy POV # 4 porn Get ready to slide into some fresh tight pussy as these young cuties patiently wait to get pummeled! Sensi Pearl, Vanessa Cage, Alanna Anderson, and Maryjane Johnson are here, and they're ready to have their banging little bodies put to hard work. So Young So Sexy POV # 4 DVD video Wake me up 'cause these girls are just so young, so sexy, and so horny -- a perfect combination!

Duration                         : 1h 1mn
Bit rate                         : 1 458 Kbps
Width                            : 624 pixels
Height                           : 352 pixels
Display aspect ratio             : 16:9
Frame rate                       : 29.970 fps
Color space                      : YUV
Chroma subsampling               : 4:2:0
Bit depth                        : 8 bits
Scan type                        : Progressive
Compression mode                 : Lossy
Bits/(Pixel*Frame)               : 0.222
Stream size                      : 638 MiB (91%)

Duration                         : 1h 1mn
Bit rate                         : 1 457 Kbps
Width                            : 624 pixels
Height                           : 352 pixels
Display aspect ratio             : 16:9
Frame rate                       : 29.970 fps
Color space                      : YUV
Chroma subsampling               : 4:2:0
Bit depth                        : 8 bits
Scan type                        : Progressive
Compression mode                 : Lossy
Bits/(Pixel*Frame)               : 0.221
Stream size                      : 640 MiB (91%)

Duration                         : 57mn 18s
Bit rate                         : 1 554 Kbps
Width                            : 624 pixels
Height                           : 352 pixels
Display aspect ratio             : 16:9
Frame rate                       : 29.970 fps
Color space                      : YUV
Chroma subsampling               : 4:2:0
Bit depth                        : 8 bits
Scan type                        : Progressive
Compression mode                 : Lossy
Bits/(Pixel*Frame)               : 0.236
Stream size                      : 637 MiB (92%)